<svg width="93" height="93" viewBox="0 0 93 93" fill="none" xmlns="http://www.w3.org/2000/svg">
<g opacity="0.1">
<path opacity="0.1" d="M92 89.8524V92H89.8526" stroke="#20263C" stroke-miterlimit="10"/>
<path opacity="0.1" d="M85.7224 92H5.216" stroke="#20263C" stroke-miterlimit="10" stroke-dasharray="5.77 5.77"/>
<path opacity="0.1" d="M3.14741 92H1V89.8524" stroke="#20263C" stroke-miterlimit="10"/>
<path opacity="0.1" d="M1 85.7219V5.20925" stroke="#20263C" stroke-miterlimit="10" stroke-dasharray="5.77 5.77"/>
<path opacity="0.1" d="M1 3.14758V1H3.14741" stroke="#20263C" stroke-miterlimit="10"/>
<path opacity="0.1" d="M7.2776 1H87.7839" stroke="#20263C" stroke-miterlimit="10" stroke-dasharray="5.77 5.77"/>
<path opacity="0.1" d="M89.8526 1H92V3.14758" stroke="#20263C" stroke-miterlimit="10"/>
<path opacity="0.1" d="M92 7.27094V87.7907" stroke="#20263C" stroke-miterlimit="10" stroke-dasharray="5.77 5.77"/>
</g>
<path d="M47.1768 35.8197C48.5814 35.821 49.97 36.126 51.2519 36.7147C52.5339 37.3035 53.6804 38.1628 54.6168 39.2366L57.5484 36.5259C55.6719 34.3855 53.2101 32.875 50.484 32.1915C47.758 31.5079 44.8945 31.6831 42.2669 32.6941C39.6394 33.7051 37.3699 35.505 35.7548 37.8589C34.1396 40.2128 33.2537 43.0114 33.2126 45.8896C33.1715 48.7677 33.9772 51.5918 35.5245 53.9931C37.0719 56.3945 39.2889 58.2618 41.8865 59.3512C44.484 60.4406 47.3414 60.7017 50.0858 60.1003C52.8301 59.4989 55.3341 58.063 57.2708 55.9799L54.4058 53.1894C53.2646 54.4135 51.8453 55.3286 50.2751 55.8526C48.7048 56.3767 47.0323 56.4935 45.4073 56.1926C43.7822 55.8917 42.2553 55.1825 40.9628 54.1283C39.6702 53.0742 38.6525 51.708 38.0006 50.1517C37.3487 48.5955 37.0828 46.8979 37.2268 45.2106C37.3709 43.5232 37.9203 41.8988 38.8259 40.4826C39.7317 39.0662 40.9653 37.9022 42.4168 37.0945C43.8683 36.2867 45.4922 35.8605 47.1436 35.8538L47.1768 35.8197Z" fill="#414042"/>
<path d="M33.9269 32.4329L31.0347 29.6344C28.7752 31.7928 26.9823 34.3585 25.7589 37.184C24.5355 40.0095 23.9057 43.0393 23.9057 46.0991C23.9057 49.159 24.5355 52.1887 25.7589 55.0142C26.9823 57.8398 28.7752 60.4054 31.0347 62.5639L33.9269 59.7654C32.0431 57.9784 30.5475 55.8503 29.5267 53.5043C28.506 51.1585 27.9804 48.6414 27.9804 46.0991C27.9804 43.5568 28.506 41.0398 29.5267 38.6939C30.5475 36.348 32.0431 34.2199 33.9269 32.4329Z" fill="#414042"/>
<path d="M61.1274 27.1112C57.1839 24.0938 52.4186 22.4696 47.5272 22.4758V26.5389C51.5632 26.535 55.4959 27.8698 58.7565 30.3502L61.1274 27.1112Z" fill="#414042"/>
<path d="M47.5272 65.7141V69.7225C52.1027 69.7276 56.5804 68.3935 60.4116 65.8835L58.1611 62.5639C54.9951 64.6248 51.301 65.7192 47.5272 65.7141Z" fill="#414042"/>
<path d="M47.5272 60.7634C44.4276 60.7613 41.4035 59.8343 38.8642 58.1077C36.3249 56.3811 34.3931 53.9384 33.3302 51.1101L29.6321 52.7783C31.0247 56.2906 33.4799 59.3107 36.6743 61.4408C39.8687 63.571 43.6525 64.7112 47.5272 64.7115V60.7634Z" fill="#414042"/>
<path d="M32.8654 45.3833C33.1055 41.6175 34.7542 38.085 37.4771 35.5025C40.1999 32.9202 43.793 31.4811 47.5272 31.4775V27.4868C42.7451 27.4866 38.1461 29.3444 34.6818 32.6757C31.2175 36.007 29.1532 40.5567 28.9163 45.3833H32.8654Z" fill="#414042"/>
</svg>
